<?xml version="1.0" standalone="no"?>
<!DOCTYPE svg PUBLIC "-//W3C//DTD SVG 20010904//EN"
 "http://www.w3.org/TR/2001/REC-SVG-20010904/DTD/svg10.dtd">
<svg version="1.0" xmlns="http://www.w3.org/2000/svg"
 width="881.000000pt" height="881.000000pt" viewBox="0 0 881.000000 881.000000"
 preserveAspectRatio="xMidYMid meet">
<metadata>
Created by potrace 1.11, written by Peter Selinger 2001-2013
</metadata>
<g transform="translate(0.000000,881.000000) scale(0.100000,-0.100000)"
fill="#000000" stroke="none">
<path d="M4099 6876 c-2 -2 -65 -7 -139 -10 -74 -4 -153 -9 -175 -11 -22 -2
-67 -6 -100 -9 -33 -3 -87 -8 -120 -12 -33 -3 -71 -8 -85 -9 -31 -4 -117 -15
-150 -20 -14 -3 -46 -7 -71 -10 -43 -5 -93 -14 -286 -49 -220 -41 -544 -124
-778 -200 -93 -31 -179 -60 -190 -65 -11 -5 -69 -28 -130 -52 -318 -122 -681
-314 -920 -486 -33 -23 -71 -51 -84 -60 -122 -88 -363 -314 -446 -418 -22 -27
-48 -59 -58 -70 -42 -46 -160 -234 -206 -329 -111 -225 -156 -419 -155 -666 1
-243 42 -425 146 -640 67 -140 184 -317 283 -430 53 -61 228 -234 284 -280 29
-25 59 -49 65 -55 60 -53 347 -253 406 -282 14 -7 39 -21 55 -31 77 -47 249
-137 360 -187 44 -20 98 -46 121 -56 22 -10 43 -19 46 -19 4 0 28 -10 55 -22
26 -11 53 -22 58 -24 6 -1 24 -8 40 -15 17 -6 35 -13 40 -15 6 -2 87 -30 180
-62 94 -32 181 -61 195 -65 14 -3 59 -15 100 -27 116 -33 304 -79 430 -105 67
-14 293 -56 325 -61 22 -3 51 -7 65 -9 83 -14 143 -21 235 -30 33 -4 65 -8 72
-10 6 -2 56 -7 110 -10 54 -4 109 -9 123 -11 158 -25 978 -25 1235 1 22 2 67
7 100 10 33 3 85 7 115 10 30 3 71 7 90 10 19 3 69 10 110 16 235 32 556 94
770 148 212 55 582 173 704 225 17 7 83 35 146 61 121 51 327 151 420 204 30
18 66 37 80 44 14 6 27 14 30 17 3 3 15 11 28 18 12 6 32 18 45 25 12 6 24 15
27 18 3 3 32 23 64 43 52 33 104 71 221 159 71 53 187 157 270 242 88 89 175
185 175 191 0 4 57 82 84 114 26 33 116 189 149 261 63 135 97 244 133 424 10
50 13 327 4 375 -4 25 -11 65 -14 90 -8 63 -58 231 -93 315 -214 508 -723 975
-1437 1315 -462 220 -1048 400 -1581 485 -159 26 -159 26 -270 40 -27 3 -61 8
-75 10 -14 2 -56 7 -95 10 -38 4 -81 8 -95 11 -14 2 -72 6 -130 10 -58 3 -116
8 -130 10 -30 6 -775 16 -781 10z"/>
</g>
</svg>
